<?xml version="1.0" encoding="UTF-8"?>
<svg version="1.1" xmlns="http://www.w3.org/2000/svg" width="160" height="160">
<path d="M0 0 C7.04337814 4.19756879 11.9266908 10.1757439 14.4375 18 C14.68038024 20.7925134 14.7912899 23.34169575 14.73046875 26.12109375 C14.72622391 26.86585464 14.72197906 27.61061554 14.71760559 28.37794495 C14.70095724 30.73151473 14.66333375 33.08419379 14.625 35.4375 C14.60993515 37.04360733 14.59624991 38.64972823 14.58398438 40.25585938 C14.55366437 44.17118312 14.49492292 48.0846074 14.4375 52 C20.3775 52 26.3175 52 32.4375 52 C32.4375 50.68 32.4375 49.36 32.4375 48 C33.7575 48 35.0775 48 36.4375 48 C36.4375 51.96 36.4375 55.92 36.4375 60 C35.1175 60 33.7975 60 32.4375 60 C32.4375 58.68 32.4375 57.36 32.4375 56 C31.4475 56 30.4575 56 29.4375 56 C29.48970703 57.64935547 29.48970703 57.64935547 29.54296875 59.33203125 C29.73562958 68.00668342 29.59582637 75.78288247 26.4375 84 C26.17066406 84.70253906 25.90382813 85.40507813 25.62890625 86.12890625 C21.00609341 96.62782785 12.36974762 103.76834356 1.90625 108.03125 C-1.4128581 109.1950931 -4.0245212 110 -7.5625 110 C-7.5625 112.64 -7.5625 115.28 -7.5625 118 C-6.45390625 117.95359375 -5.3453125 117.9071875 -4.203125 117.859375 C-2.73961032 117.82184898 -1.27606644 117.78544971 0.1875 117.75 C0.91710937 117.71648437 1.64671875 117.68296875 2.3984375 117.6484375 C5.7729272 117.58708314 8.03704596 117.75873266 10.953125 119.515625 C12.4375 122 12.4375 122 12.4375 130 C-4.7225 130 -21.8825 130 -39.5625 130 C-39.5625 122 -39.5625 122 -38.078125 119.515625 C-34.54121794 117.38469342 -31.30514939 117.56659208 -27.3125 117.75 C-26.56742188 117.76804687 -25.82234375 117.78609375 -25.0546875 117.8046875 C-23.22340299 117.85164351 -21.39278351 117.92338348 -19.5625 118 C-19.5625 115.36 -19.5625 112.72 -19.5625 110 C-20.48869141 109.87044922 -20.48869141 109.87044922 -21.43359375 109.73828125 C-32.78846074 107.85444487 -41.94107141 102.07572853 -49.1328125 93.0234375 C-55.00997151 84.1901027 -56.73848732 74.60214411 -56.625 64.1875 C-56.62048828 63.39923828 -56.61597656 62.61097656 -56.61132812 61.79882812 C-56.59961312 59.86585239 -56.58167998 57.93291607 -56.5625 56 C-57.5525 56 -58.5425 56 -59.5625 56 C-59.5625 57.32 -59.5625 58.64 -59.5625 60 C-60.8825 60 -62.2025 60 -63.5625 60 C-63.5625 56.04 -63.5625 52.08 -63.5625 48 C-62.2425 48 -60.9225 48 -59.5625 48 C-59.5625 49.32 -59.5625 50.64 -59.5625 52 C-53.6225 52 -47.6825 52 -41.5625 52 C-41.62050781 49.66164062 -41.67851563 47.32328125 -41.73828125 44.9140625 C-41.77741746 42.61705913 -41.80769553 40.32009471 -41.8371582 38.02294922 C-41.86210626 36.44204741 -41.89607805 34.86125858 -41.93969727 33.28076172 C-42.22229402 22.76816264 -42.18226494 14.0077389 -34.5715332 5.87158203 C-25.4445741 -2.89228566 -11.64205041 -5.28534804 0 0 Z M-19.5625 3 C-18.9025 3.33 -18.2425 3.66 -17.5625 4 C-17.5625 5.32 -17.5625 6.64 -17.5625 8 C-18.8825 8 -20.2025 8 -21.5625 8 C-21.8925 6.68 -22.2225 5.36 -22.5625 4 C-28.76975661 7.6947956 -33.33582223 11.85330484 -36 18.6875 C-36.5049152 21.66088949 -36.66500109 23.24374728 -35.5625 26 C-36.2225 26 -36.8825 26 -37.5625 26 C-37.5625 28.64 -37.5625 31.28 -37.5625 34 C-36.9025 34 -36.2425 34 -35.5625 34 C-35.5625 35.32 -35.5625 36.64 -35.5625 38 C-36.2225 38 -36.8825 38 -37.5625 38 C-37.5625 40.64 -37.5625 43.28 -37.5625 46 C-36.9025 46 -36.2425 46 -35.5625 46 C-35.5625 47.32 -35.5625 48.64 -35.5625 50 C-36.2225 50 -36.8825 50 -37.5625 50 C-38.50778467 68.68781885 -38.50778467 68.68781885 -30.5625 85 C-23.33359603 90.68993808 -16.65080601 91.83040359 -7.5625 91 C-1.52661364 89.18528907 3.28201316 85.51723022 6.59375 80.11328125 C10.34443682 73.08074347 10.58114761 66.45262299 10.5 58.625 C10.49548828 57.79355469 10.49097656 56.96210937 10.48632812 56.10546875 C10.47463164 54.07028103 10.45669935 52.03513077 10.4375 50 C9.7775 50 9.1175 50 8.4375 50 C8.4375 48.68 8.4375 47.36 8.4375 46 C9.0975 46 9.7575 46 10.4375 46 C10.4375 43.36 10.4375 40.72 10.4375 38 C9.7775 38 9.1175 38 8.4375 38 C8.4375 36.68 8.4375 35.36 8.4375 34 C9.0975 34 9.7575 34 10.4375 34 C10.4375 31.36 10.4375 28.72 10.4375 26 C9.7775 26 9.1175 26 8.4375 26 C8.685 25.175 8.9325 24.35 9.1875 23.5 C9.53011038 18.70345464 8.1965492 15.87758265 5.4375 12 C2.1175414 8.53337656 -0.96899745 5.53116752 -5.5625 4 C-5.5625 5.32 -5.5625 6.64 -5.5625 8 C-6.8825 8 -8.2025 8 -9.5625 8 C-9.5625 6.68 -9.5625 5.36 -9.5625 4 C-8.9025 3.67 -8.2425 3.34 -7.5625 3 C-11.5225 3 -15.4825 3 -19.5625 3 Z M-51.5625 56 C-52.14714539 68.65107672 -51.83532953 81.01112765 -43.2578125 91.2265625 C-35.43055449 99.41452365 -27.61627464 104.9799674 -16.02880859 105.29199219 C-3.89510336 105.41097786 4.89509173 102.21790951 14 93.875 C23.54100827 84.01736535 24.71191076 72.19203352 24.5078125 59.21875 C24.48460938 58.1565625 24.46140625 57.094375 24.4375 56 C21.1375 56 17.8375 56 14.4375 56 C14.42332031 57.32773438 14.40914063 58.65546875 14.39453125 60.0234375 C13.95485598 79.89149874 13.95485598 79.89149874 6.796875 87.81640625 C0.1474606 94.03151205 -6.54767937 95.55591001 -15.49169922 95.48266602 C-22.75825244 95.23339756 -28.01272554 93.18647132 -33.39453125 88.35546875 C-39.76762236 81.4861759 -41.02130672 74.63835622 -41.25 65.5625 C-41.30124023 64.17901367 -41.30124023 64.17901367 -41.35351562 62.76757812 C-41.43531957 60.51212643 -41.50060172 58.25608573 -41.5625 56 C-44.8625 56 -48.1625 56 -51.5625 56 Z M-15.5625 110 C-15.5625 112.64 -15.5625 115.28 -15.5625 118 C-14.2425 118 -12.9225 118 -11.5625 118 C-11.5625 115.36 -11.5625 112.72 -11.5625 110 C-12.8825 110 -14.2025 110 -15.5625 110 Z M-34.5625 124 C-34.5625 124.66 -34.5625 125.32 -34.5625 126 C-20.7025 126 -6.8425 126 7.4375 126 C6.9425 124.515 6.9425 124.515 6.4375 123 C3.29280205 121.42765102 -0.07467035 121.83703594 -3.52734375 121.83203125 C-4.7110128 121.82703865 -4.7110128 121.82703865 -5.91859436 121.82194519 C-7.58887142 121.81687902 -9.25915862 121.81453677 -10.92944336 121.81469727 C-13.48633485 121.81251168 -16.04279432 121.79435554 -18.59960938 121.77539062 C-20.22135269 121.77245648 -21.84309805 121.77047182 -23.46484375 121.76953125 C-24.23054184 121.76234573 -24.99623993 121.75516022 -25.78514099 121.74775696 C-29.58577773 121.76413243 -31.32163335 121.83942224 -34.5625 124 Z " fill="#000000" transform="translate(93.5625,16)"/>
<path d="M0 0 C3 0.125 3 0.125 4 1.125 C4.125 4.125 4.125 4.125 4 7.125 C3 8.125 3 8.125 0 8.25 C-3 8.125 -3 8.125 -4 7.125 C-4.125 4.125 -4.125 4.125 -4 1.125 C-3 0.125 -3 0.125 0 0 Z " fill="#000000" transform="translate(80,83.875)"/>
<path d="M0 0 C1.32 0 2.64 0 4 0 C4 1.32 4 2.64 4 4 C2.68 4 1.36 4 0 4 C0 2.68 0 1.36 0 0 Z " fill="#000000" transform="translate(96,68)"/>
<path d="M0 0 C1.32 0 2.64 0 4 0 C4 1.32 4 2.64 4 4 C2.68 4 1.36 4 0 4 C0 2.68 0 1.36 0 0 Z " fill="#000000" transform="translate(84,68)"/>
<path d="M0 0 C1.32 0 2.64 0 4 0 C4 1.32 4 2.64 4 4 C2.68 4 1.36 4 0 4 C0 2.68 0 1.36 0 0 Z " fill="#000000" transform="translate(72,68)"/>
<path d="M0 0 C1.32 0 2.64 0 4 0 C4 1.32 4 2.64 4 4 C2.68 4 1.36 4 0 4 C0 2.68 0 1.36 0 0 Z " fill="#000000" transform="translate(60,68)"/>
<path d="M0 0 C1.32 0 2.64 0 4 0 C4 1.32 4 2.64 4 4 C2.68 4 1.36 4 0 4 C0 2.68 0 1.36 0 0 Z " fill="#000000" transform="translate(90,62)"/>
<path d="M0 0 C1.32 0 2.64 0 4 0 C4 1.32 4 2.64 4 4 C2.68 4 1.36 4 0 4 C0 2.68 0 1.36 0 0 Z " fill="#000000" transform="translate(78,62)"/>
<path d="M0 0 C1.32 0 2.64 0 4 0 C4 1.32 4 2.64 4 4 C2.68 4 1.36 4 0 4 C0 2.68 0 1.36 0 0 Z " fill="#000000" transform="translate(66,62)"/>
<path d="M0 0 C1.32 0 2.64 0 4 0 C4 1.32 4 2.64 4 4 C2.68 4 1.36 4 0 4 C0 2.68 0 1.36 0 0 Z " fill="#000000" transform="translate(96,56)"/>
<path d="M0 0 C1.32 0 2.64 0 4 0 C4 1.32 4 2.64 4 4 C2.68 4 1.36 4 0 4 C0 2.68 0 1.36 0 0 Z " fill="#000000" transform="translate(84,56)"/>
<path d="M0 0 C1.32 0 2.64 0 4 0 C4 1.32 4 2.64 4 4 C2.68 4 1.36 4 0 4 C0 2.68 0 1.36 0 0 Z " fill="#000000" transform="translate(72,56)"/>
<path d="M0 0 C1.32 0 2.64 0 4 0 C4 1.32 4 2.64 4 4 C2.68 4 1.36 4 0 4 C0 2.68 0 1.36 0 0 Z " fill="#000000" transform="translate(60,56)"/>
<path d="M0 0 C1.32 0 2.64 0 4 0 C4 1.32 4 2.64 4 4 C2.68 4 1.36 4 0 4 C0 2.68 0 1.36 0 0 Z " fill="#000000" transform="translate(90,50)"/>
<path d="M0 0 C1.32 0 2.64 0 4 0 C4 1.32 4 2.64 4 4 C2.68 4 1.36 4 0 4 C0 2.68 0 1.36 0 0 Z " fill="#000000" transform="translate(78,50)"/>
<path d="M0 0 C1.32 0 2.64 0 4 0 C4 1.32 4 2.64 4 4 C2.68 4 1.36 4 0 4 C0 2.68 0 1.36 0 0 Z " fill="#000000" transform="translate(66,50)"/>
<path d="M0 0 C1.32 0 2.64 0 4 0 C4 1.32 4 2.64 4 4 C2.68 4 1.36 4 0 4 C0 2.68 0 1.36 0 0 Z " fill="#000000" transform="translate(96,44)"/>
<path d="M0 0 C1.32 0 2.64 0 4 0 C4 1.32 4 2.64 4 4 C2.68 4 1.36 4 0 4 C0 2.68 0 1.36 0 0 Z " fill="#000000" transform="translate(84,44)"/>
<path d="M0 0 C1.32 0 2.64 0 4 0 C4 1.32 4 2.64 4 4 C2.68 4 1.36 4 0 4 C0 2.68 0 1.36 0 0 Z " fill="#000000" transform="translate(72,44)"/>
<path d="M0 0 C1.32 0 2.64 0 4 0 C4 1.32 4 2.64 4 4 C2.68 4 1.36 4 0 4 C0 2.68 0 1.36 0 0 Z " fill="#000000" transform="translate(60,44)"/>
<path d="M0 0 C1.32 0 2.64 0 4 0 C4 1.32 4 2.64 4 4 C2.68 4 1.36 4 0 4 C0 2.68 0 1.36 0 0 Z " fill="#000000" transform="translate(90,38)"/>
<path d="M0 0 C1.32 0 2.64 0 4 0 C4 1.32 4 2.64 4 4 C2.68 4 1.36 4 0 4 C0 2.68 0 1.36 0 0 Z " fill="#000000" transform="translate(78,38)"/>
<path d="M0 0 C1.32 0 2.64 0 4 0 C4 1.32 4 2.64 4 4 C2.68 4 1.36 4 0 4 C0 2.68 0 1.36 0 0 Z " fill="#000000" transform="translate(66,38)"/>
<path d="M0 0 C1.32 0 2.64 0 4 0 C4 1.32 4 2.64 4 4 C2.68 4 1.36 4 0 4 C0 2.68 0 1.36 0 0 Z " fill="#000000" transform="translate(96,32)"/>
<path d="M0 0 C1.32 0 2.64 0 4 0 C4 1.32 4 2.64 4 4 C2.68 4 1.36 4 0 4 C0 2.68 0 1.36 0 0 Z " fill="#000000" transform="translate(84,32)"/>
<path d="M0 0 C1.32 0 2.64 0 4 0 C4 1.32 4 2.64 4 4 C2.68 4 1.36 4 0 4 C0 2.68 0 1.36 0 0 Z " fill="#000000" transform="translate(72,32)"/>
<path d="M0 0 C1.32 0 2.64 0 4 0 C4 1.32 4 2.64 4 4 C2.68 4 1.36 4 0 4 C0 2.68 0 1.36 0 0 Z " fill="#000000" transform="translate(60,32)"/>
<path d="M0 0 C1.32 0 2.64 0 4 0 C4 1.32 4 2.64 4 4 C2.68 4 1.36 4 0 4 C0 2.68 0 1.36 0 0 Z " fill="#000000" transform="translate(90,26)"/>
<path d="M0 0 C1.32 0 2.64 0 4 0 C4 1.32 4 2.64 4 4 C2.68 4 1.36 4 0 4 C0 2.68 0 1.36 0 0 Z " fill="#000000" transform="translate(78,26)"/>
<path d="M0 0 C1.32 0 2.64 0 4 0 C4 1.32 4 2.64 4 4 C2.68 4 1.36 4 0 4 C0 2.68 0 1.36 0 0 Z " fill="#000000" transform="translate(66,26)"/>
</svg>
